<svg width="60" height="50" viewBox="0 0 60 50" fill="none" xmlns="http://www.w3.org/2000/svg">
<g clip-path="url(#clip0_42_2)">
<rect width="60" height="50" fill="none"/>
<path d="M15.0015 31C13.5015 31 12.3948 30.6467 11.6815 29.94C10.9748 29.2267 10.6215 28.12 10.6215 26.62V22.04C10.6215 20.5267 10.9748 19.4167 11.6815 18.71C12.3882 18.0033 13.4882 17.6533 14.9815 17.66H17.4015C18.6415 17.66 19.5815 17.92 20.2215 18.44C20.8615 18.9533 21.2282 19.7667 21.3215 20.88C21.3548 21.1267 21.3082 21.3167 21.1815 21.45C21.0548 21.5767 20.8682 21.64 20.6215 21.64C20.1748 21.64 19.9182 21.3933 19.8515 20.9C19.7915 20.22 19.5748 19.7567 19.2015 19.51C18.8282 19.2567 18.2282 19.13 17.4015 19.13H14.9815C14.2548 19.13 13.6815 19.22 13.2615 19.4C12.8415 19.5733 12.5415 19.8733 12.3615 20.3C12.1815 20.72 12.0915 21.3 12.0915 22.04V26.62C12.0915 27.3533 12.1815 27.9333 12.3615 28.36C12.5415 28.78 12.8415 29.08 13.2615 29.26C13.6882 29.44 14.2682 29.53 15.0015 29.53H17.4015C18.0415 29.53 18.5415 29.4567 18.9015 29.31C19.2682 29.1633 19.5248 28.91 19.6715 28.55C19.8248 28.1833 19.9015 27.6733 19.9015 27.02V25.98L18.1315 25.96C17.6448 25.96 17.4015 25.7133 17.4015 25.22C17.4015 24.7333 17.6448 24.49 18.1315 24.49L20.6415 24.51C21.1282 24.51 21.3715 24.7533 21.3715 25.24V27.02C21.3715 28.4067 21.0515 29.4167 20.4115 30.05C19.7782 30.6833 18.7748 31 17.4015 31H15.0015ZM24.041 30.93C23.5743 30.7433 23.4343 30.42 23.621 29.96L28.451 18.24C28.6177 17.8533 28.891 17.66 29.271 17.66H29.321C29.701 17.68 29.961 17.8733 30.101 18.24L34.981 29.96C35.1677 30.42 35.0343 30.7433 34.581 30.93C34.121 31.11 33.801 30.9767 33.621 30.53L32.451 27.73H26.121L24.991 30.53C24.8043 30.9833 24.4877 31.1167 24.041 30.93ZM26.701 26.26H31.851L29.241 19.99L26.701 26.26ZM38.5293 31C38.036 31 37.7893 30.7533 37.7893 30.26V18.4C37.7893 17.9067 38.036 17.66 38.5293 17.66C39.016 17.66 39.2593 17.9067 39.2593 18.4V29.53H44.9793C45.4726 29.53 45.7193 29.7733 45.7193 30.26C45.7193 30.7533 45.4726 31 44.9793 31H38.5293ZM51.6962 30.99C50.5428 30.99 49.6562 30.75 49.0362 30.27C48.4228 29.7833 48.0562 29.03 47.9362 28.01C47.9162 27.7633 47.9695 27.5767 48.0962 27.45C48.2295 27.3167 48.4162 27.25 48.6562 27.25C48.8962 27.25 49.0728 27.31 49.1862 27.43C49.3062 27.55 49.3828 27.73 49.4162 27.97C49.4962 28.5567 49.7062 28.9633 50.0462 29.19C50.3928 29.41 50.9428 29.52 51.6962 29.52H54.5762C55.4695 29.52 56.0795 29.3567 56.4062 29.03C56.7395 28.6967 56.9062 28.0933 56.9062 27.22C56.9062 26.3333 56.7362 25.7233 56.3962 25.39C56.0628 25.05 55.4562 24.88 54.5762 24.88H52.0162C50.7828 24.88 49.8695 24.5833 49.2762 23.99C48.6895 23.3967 48.3962 22.4867 48.3962 21.26C48.3962 20.0333 48.6862 19.1267 49.2662 18.54C49.8528 17.9533 50.7628 17.66 51.9962 17.66H54.5162C55.5962 17.66 56.4262 17.89 57.0062 18.35C57.5928 18.8033 57.9462 19.5067 58.0662 20.46C58.0928 20.7067 58.0395 20.8967 57.9062 21.03C57.7795 21.1567 57.5928 21.22 57.3462 21.22C57.1128 21.22 56.9362 21.16 56.8162 21.04C56.6962 20.9133 56.6228 20.7333 56.5962 20.5C56.5162 19.9867 56.3162 19.63 55.9962 19.43C55.6828 19.23 55.1895 19.13 54.5162 19.13H51.9962C51.1695 19.13 50.6062 19.2833 50.3062 19.59C50.0128 19.89 49.8662 20.4467 49.8662 21.26C49.8662 22.0733 50.0162 22.6367 50.3162 22.95C50.6228 23.2567 51.1895 23.41 52.0162 23.41H54.5762C55.8695 23.41 56.8262 23.72 57.4462 24.34C58.0662 24.96 58.3762 25.92 58.3762 27.22C58.3762 28.5133 58.0662 29.4667 57.4462 30.08C56.8262 30.6867 55.8695 30.99 54.5762 30.99H51.6962Z" fill="url(#paint0_radial_42_2)"/>
<path d="M43.5 18.28V13L22.5 1L1 13.48V37L22.5 49L44 37V32.68" stroke="url(#paint1_radial_42_2)"/>
</g>
<defs>
<radialGradient id="paint0_radial_42_2" cx="0" cy="0" r="1" gradientUnits="userSpaceOnUse" gradientTransform="translate(34.5 24) rotate(90) scale(12 25.5)">
<stop stop-color="#1ABB9C"/>
<stop offset="1" stop-color="#4A0F55"/>
</radialGradient>
<radialGradient id="paint1_radial_42_2" cx="0" cy="0" r="1" gradientUnits="userSpaceOnUse" gradientTransform="translate(22.5 25) rotate(90) scale(24 21.5)">
<stop stop-color="#1ABB9C"/>
<stop offset="1" stop-color="#4A0F55"/>
</radialGradient>
<clipPath id="clip0_42_2">
<rect width="60" height="50" fill="none"/>
</clipPath>
</defs>
</svg>
